<svg xmlns="http://www.w3.org/2000/svg" width="2261" height="483" viewBox="0 0 2261 483">
  <g id="Group_73" data-name="Group 73" transform="translate(4129 -4615)">
    <rect id="Rectangle_22" data-name="Rectangle 22" width="2261" height="483" transform="translate(-4129 4615)" fill="none"/>
    <g id="Group_72" data-name="Group 72" transform="translate(1123 827)">
      <g id="Rectangle_40" data-name="Rectangle 40" transform="translate(-4689 3918)" fill="#fff" stroke="#707070" stroke-width="1">
        <rect width="100" height="230" rx="23" stroke="none"/>
        <rect x="0.5" y="0.5" width="99" height="229" rx="22.5" fill="none"/>
      </g>
      <rect id="Rectangle_41" data-name="Rectangle 41" width="100" height="230" rx="23" transform="translate(-4689 3918)" fill="#29384b"/>
      <g id="Rectangle_42" data-name="Rectangle 42" transform="translate(-4618 3891)" fill="#fff" stroke="#29384b" stroke-width="1">
        <rect width="101" height="230" rx="23" stroke="none"/>
        <rect x="0.5" y="0.5" width="100" height="229" rx="22.5" fill="none"/>
      </g>
      <rect id="Rectangle_43" data-name="Rectangle 43" width="101" height="230" rx="23" transform="translate(-4507 3940)" fill="rgba(41,56,75,0.93)"/>
      <path id="Path_148" data-name="Path 148" d="M38.412-212.43c-13.095,0-22.116,8.73-22.116,21.243,0,12.8,9.021,21.243,22.116,21.243s22.116-8.439,22.116-21.243C60.528-203.7,51.507-212.43,38.412-212.43ZM58.491,0V-154.812H18.333V0ZM248.805-115.527c-3.2-27.063-22.116-43.359-55-43.359-14.841,0-26.19,2.91-37.248,10.767l-11.931,18.333v-25.026H104.469V0h40.158V-70.713c0-43.068,15.423-59.946,34.92-59.946s28.518,11.058,29.682,27.354c.582,7.857.582,15.132.582,21.534V0h40.158V-87.3C249.969-99.813,249.678-107.67,248.805-115.527Zm84.1-98.358H292.746V-49.761c0,10.185,0,17.46.582,24.444C294.2-5.238,306.714,2.037,326.5,2.037A220.466,220.466,0,0,0,351.237.873V-26.772c-13.677.873-17.169-1.746-18.042-9.6-.291-4.074-.291-8.148-.291-14.259Zm71,1.455c-13.1,0-22.116,8.73-22.116,21.243,0,12.8,9.021,21.243,22.116,21.243s22.116-8.439,22.116-21.243C426.024-203.7,417-212.43,403.908-212.43ZM423.987,0V-154.812H383.829V0ZM614.3-115.527c-3.2-27.063-22.116-43.359-55-43.359-14.841,0-26.19,2.91-37.248,10.767l-11.931,18.333v-25.026H469.965V0h40.158V-70.713c0-43.068,15.423-59.946,34.92-59.946s28.518,11.058,29.682,27.354c.582,7.857.582,15.132.582,21.534V0h40.158V-87.3C615.465-99.813,615.174-107.67,614.3-115.527Zm185.658,34.92c0-42.2-25.026-78.279-72.459-78.279s-78.57,34.629-78.57,82.062c0,54.417,32.883,80.9,75.369,80.9,36.375,0,65.475-18.333,73.332-54.417H757.473c-2.619,16.587-15.132,26.19-32.3,26.19-18.624,0-33.174-10.185-35.793-42.777h110A119.533,119.533,0,0,0,799.959-80.607Zm-74.2-50.052c19.206,0,30.264,13.1,32.883,37.539H690.543C694.035-118.728,707.13-130.659,725.754-130.659Z" transform="translate(-4363 4137)" fill="#1b3040"/>
    </g>
  </g>
</svg>
